<svg width="32" height="26" viewBox="0 0 32 26" fill="none" xmlns="http://www.w3.org/2000/svg">
<path d="M7.33337 8V18M25.3334 8V18M3.00004 1H29.6667C30.5871 1 31.3334 2.07452 31.3334 3.4V22.6C31.3334 23.9254 30.5871 25 29.6667 25H3.00004C2.07956 25 1.33337 23.9254 1.33337 22.6V3.4C1.33337 2.07452 2.07956 1 3.00004 1ZM20.0834 13C20.0834 15.7614 18.4044 18 16.3334 18C14.2623 18 12.5834 15.7614 12.5834 13C12.5834 10.2386 14.2623 8 16.3334 8C18.4044 8 20.0834 10.2386 20.0834 13Z" stroke="black" stroke-linecap="round" stroke-linejoin="round"/>
</svg>
