<svg width="26" height="26" viewBox="0 0 26 26" fill="none" xmlns="http://www.w3.org/2000/svg">
<path d="M6.13337 8V18M20.5334 8V18M2.66671 1H24.0001C24.7364 1 25.3334 2.07452 25.3334 3.4V22.6C25.3334 23.9254 24.7364 25 24.0001 25H2.66671C1.93033 25 1.33337 23.9254 1.33337 22.6V3.4C1.33337 2.07452 1.93033 1 2.66671 1ZM16.3334 13C16.3334 15.7614 14.9902 18 13.3334 18C11.6765 18 10.3334 15.7614 10.3334 13C10.3334 10.2386 11.6765 8 13.3334 8C14.9902 8 16.3334 10.2386 16.3334 13Z" stroke="black" stroke-linecap="round" stroke-linejoin="round"/>
</svg>
