<svg width="24" height="24" viewBox="0 0 24 24" fill="none" xmlns="http://www.w3.org/2000/svg">
<g clip-path="url(#clip0_131_36)">
<path fill-rule="evenodd" clip-rule="evenodd" d="M22.5 10.5H1.5V6.75C1.5 5.922 2.172 5.25 3 5.25H21C21.828 5.25 22.5 5.922 22.5 6.75V10.5ZM10.5 12.75C10.5 12.4755 10.5787 12.222 10.7077 12H13.2923C13.4213 12.222 13.5 12.4755 13.5 12.75C13.5 13.578 12.828 14.25 12 14.25C11.172 14.25 10.5 13.578 10.5 12.75ZM22.5 20.25C22.5 21.078 21.828 21.75 21 21.75H3C2.172 21.75 1.5 21.078 1.5 20.25V12H9.1065C9.0435 12.2408 9 12.489 9 12.75C9 14.4068 10.3432 15.75 12 15.75C13.6568 15.75 15 14.4068 15 12.75C15 12.489 14.9565 12.2408 14.8935 12H22.5V20.25ZM9 3C9 2.586 9.336 2.25 9.75 2.25H14.25C14.664 2.25 15 2.586 15 3V3.75H9V3ZM21 3.75H16.5V2.25C16.5 1.422 15.828 0.75 15 0.75H9C8.172 0.75 7.5 1.422 7.5 2.25V3.75H3C1.34325 3.75 0 5.09325 0 6.75V20.25C0 21.9068 1.34325 23.25 3 23.25H21C22.6568 23.25 24 21.9068 24 20.25V6.75C24 5.09325 22.6568 3.75 21 3.75Z" fill="black"/>
</g>
<defs>
<clipPath id="clip0_131_36">
<rect width="24" height="24" fill="white"/>
</clipPath>
</defs>
</svg>
